<svg width="15" height="15" viewBox="0 0 15 15" fill="none" xmlns="http://www.w3.org/2000/svg">
<path d="M10.0009 9.24914L8.25106 7.5L10.0009 5.75086C10.0502 5.7015 10.0894 5.6429 10.1161 5.57841C10.1428 5.51392 10.1565 5.4448 10.1565 5.375C10.1565 5.3052 10.1428 5.23608 10.1161 5.17159C10.0894 5.1071 10.0502 5.0485 10.0009 4.99914C9.9515 4.94978 9.89291 4.91063 9.82842 4.88392C9.76393 4.8572 9.69481 4.84345 9.625 4.84345C9.5552 4.84345 9.48608 4.8572 9.42159 4.88392C9.3571 4.91063 9.2985 4.94978 9.24914 4.99914L7.5 6.74895L5.75086 4.99914C5.7015 4.94978 5.64291 4.91063 5.57842 4.88392C5.51393 4.8572 5.44481 4.84345 5.375 4.84345C5.3052 4.84345 5.23608 4.8572 5.17159 4.88392C5.1071 4.91063 5.0485 4.94978 4.99914 4.99914C4.94978 5.0485 4.91063 5.1071 4.88392 5.17159C4.85721 5.23608 4.84346 5.3052 4.84346 5.375C4.84346 5.4448 4.85721 5.51392 4.88392 5.57841C4.91063 5.6429 4.94978 5.7015 4.99914 5.75086L6.74895 7.5L4.99914 9.24914C4.89946 9.34882 4.84346 9.48403 4.84346 9.625C4.84346 9.76597 4.89946 9.90118 4.99914 10.0009C5.09883 10.1005 5.23403 10.1565 5.375 10.1565C5.51598 10.1565 5.65118 10.1005 5.75086 10.0009L7.5 8.25105L9.24914 10.0009C9.2985 10.0502 9.3571 10.0894 9.42159 10.1161C9.48608 10.1428 9.5552 10.1565 9.625 10.1565C9.69481 10.1565 9.76393 10.1428 9.82842 10.1161C9.89291 10.0894 9.9515 10.0502 10.0009 10.0009C10.0502 9.9515 10.0894 9.8929 10.1161 9.82841C10.1428 9.76392 10.1565 9.6948 10.1565 9.625C10.1565 9.5552 10.1428 9.48608 10.1161 9.42159C10.0894 9.3571 10.0502 9.2985 10.0009 9.24914ZM14.4063 7.5C14.4063 6.13407 14.0012 4.79882 13.2423 3.66309C12.4835 2.52737 11.4049 1.64217 10.1429 1.11946C8.88096 0.59674 7.49234 0.459972 6.15266 0.726452C4.81298 0.992931 3.5824 1.65069 2.61655 2.61654C1.65069 3.5824 0.992934 4.81298 0.726455 6.15266C0.459976 7.49234 0.596742 8.88096 1.11946 10.1429C1.64218 11.4049 2.52737 12.4835 3.6631 13.2423C4.79882 14.0012 6.13408 14.4062 7.5 14.4062C9.33106 14.4043 11.0866 13.6761 12.3813 12.3813C13.6761 11.0866 14.4043 9.33106 14.4063 7.5ZM13.3438 7.5C13.3438 8.65578 13.001 9.78561 12.3589 10.7466C11.7168 11.7076 10.8041 12.4566 9.73631 12.8989C8.6685 13.3412 7.49352 13.4569 6.35994 13.2315C5.22637 13.006 4.18511 12.4494 3.36785 11.6322C2.55058 10.8149 1.99402 9.77364 1.76854 8.64006C1.54306 7.50648 1.65878 6.3315 2.10108 5.26369C2.54338 4.19589 3.29239 3.28322 4.25339 2.6411C5.21439 1.99898 6.34422 1.65625 7.5 1.65625C9.04932 1.65801 10.5347 2.27425 11.6302 3.36979C12.7258 4.46532 13.342 5.95068 13.3438 7.5Z" fill="#858585"/>
</svg>
