<svg width="31" height="31" viewBox="0 0 31 31" fill="none" xmlns="http://www.w3.org/2000/svg">
<path d="M15.293 2.50977C8.39025 2.50977 2.79297 8.10704 2.79297 15.0098C2.79297 21.9125 8.39025 27.5098 15.293 27.5098C22.1957 27.5098 27.793 21.9125 27.793 15.0098C27.793 8.10704 22.1975 2.50977 15.293 2.50977ZM19.1048 11.9472L18.0828 16.5933C17.9729 17.0893 17.5956 17.4843 17.1032 17.6118L12.3013 18.8606C11.8212 18.9845 11.3784 18.5612 11.4812 18.0776L12.5014 13.265C12.6112 12.7478 13.0115 12.3422 13.5288 12.2271L18.3077 11.1537C18.7842 11.0474 19.2093 11.4707 19.1048 11.9472Z" fill="#DDDDDD"/>
</svg>
