<svg width="23" height="26" viewBox="0 0 23 26" fill="none" xmlns="http://www.w3.org/2000/svg">
<path fill-rule="evenodd" clip-rule="evenodd" d="M0.0429688 10.5098C0.0429688 5.79602 0.0429686 3.43852 1.50797 1.97477C2.97172 0.509765 5.32922 0.509766 10.043 0.509766H12.543C17.2567 0.509766 19.6142 0.509765 21.078 1.97477C22.543 3.43852 22.543 5.79602 22.543 10.5098V15.5098C22.543 20.2235 22.543 22.581 21.078 24.0448C19.6142 25.5098 17.2567 25.5098 12.543 25.5098H10.043C5.32922 25.5098 2.97172 25.5098 1.50797 24.0448C0.0429686 22.581 0.0429688 20.2235 0.0429688 15.5098V10.5098ZM3.79297 13.0098C3.79297 11.2423 3.79297 10.3585 4.34297 9.80976C4.89047 9.25976 5.77422 9.25977 7.54297 9.25977H15.043C16.8105 9.25977 17.6942 9.25976 18.243 9.80976C18.793 10.3585 18.793 11.2423 18.793 13.0098V18.0098C18.793 19.7773 18.793 20.661 18.243 21.2098C17.6942 21.7598 16.8105 21.7598 15.043 21.7598H7.54297C5.77547 21.7598 4.89172 21.7598 4.34297 21.2098C3.79297 20.6623 3.79297 19.7785 3.79297 18.0098V13.0098ZM5.04297 4.57227C4.79433 4.57227 4.55587 4.67104 4.38006 4.84685C4.20424 5.02267 4.10547 5.26113 4.10547 5.50977C4.10547 5.75841 4.20424 5.99686 4.38006 6.17268C4.55587 6.34849 4.79433 6.44727 5.04297 6.44727H11.293C11.5416 6.44727 11.7801 6.34849 11.9559 6.17268C12.1317 5.99686 12.2305 5.75841 12.2305 5.50977C12.2305 5.26113 12.1317 5.02267 11.9559 4.84685C11.7801 4.67104 11.5416 4.57227 11.293 4.57227H5.04297Z" fill="#111111"/>
</svg>
