<svg width="26" height="26" viewBox="0 0 26 26" fill="none" xmlns="http://www.w3.org/2000/svg">
<path d="M21.1162 5.7863H15.2951C13.3367 5.80763 10.8452 2.79129 10.1547 1.95479C9.46419 1.11664 8.2488 0.509766 7.20234 0.509766H5.5687C2.72458 0.509766 0.418457 2.81589 0.418457 5.66001V21.4585C0.418457 23.6957 2.23252 25.5098 4.46976 25.5098H21.1162C23.3534 25.5098 25.1675 23.6957 25.1675 21.4585V9.83761C25.1675 7.60037 23.3534 5.7863 21.1162 5.7863ZM20.8341 11.3384H13.5467C13.094 11.3384 12.7266 10.971 12.7266 10.5183C12.7266 10.0656 13.094 9.69819 13.5467 9.69819H20.8341C21.2868 9.69819 21.6542 10.0656 21.6542 10.5183C21.6542 10.971 21.2868 11.3384 20.8341 11.3384Z" fill="#DDDDDD"/>
</svg>
