<svg width="14" height="14" viewBox="0 0 14 14" fill="none" xmlns="http://www.w3.org/2000/svg">
<path d="M5.93213 8.06787C6.24265 8.36324 6.24265 8.84795 5.93213 9.14332C5.63676 9.43868 5.15205 9.43868 4.85669 9.14332C4.14733 8.4329 3.74891 7.47 3.74891 6.46606C3.74891 5.46213 4.14733 4.49924 4.85669 3.78881L7.53772 1.10778C8.24814 0.398422 9.21104 0 10.215 0C11.2189 0 12.1818 0.398422 12.8922 1.10778C13.6016 1.8182 14 2.78109 14 3.78503C14 4.78896 13.6016 5.75186 12.8922 6.46228L11.7638 7.59074C11.7713 6.96971 11.6729 6.34867 11.4608 5.75794L11.8168 5.39441C12.0291 5.18438 12.1976 4.93434 12.3127 4.65874C12.4277 4.38314 12.4869 4.08746 12.4869 3.78881C12.4869 3.49017 12.4277 3.19449 12.3127 2.91889C12.1976 2.64329 12.0291 2.39325 11.8168 2.18322C11.6068 1.97091 11.3567 1.80235 11.0811 1.68732C10.8055 1.57229 10.5098 1.51305 10.2112 1.51305C9.91254 1.51305 9.61687 1.57229 9.34126 1.68732C9.06567 1.80235 8.81562 1.97091 8.60559 2.18322L5.93213 4.85669C5.71981 5.06671 5.55126 5.31676 5.43623 5.59236C5.32119 5.86796 5.26196 6.16364 5.26196 6.46228C5.26196 6.76092 5.32119 7.0566 5.43623 7.3322C5.55126 7.6078 5.71981 7.85785 5.93213 8.06787ZM8.06787 4.85669C8.36324 4.56132 8.84795 4.56132 9.14332 4.85669C9.85267 5.56711 10.2511 6.53 10.2511 7.53394C10.2511 8.53787 9.85267 9.50077 9.14332 10.2112L6.46228 12.8922C5.75186 13.6016 4.78896 14 3.78503 14C2.78109 14 1.8182 13.6016 1.10778 12.8922C0.398422 12.1818 0 11.2189 0 10.215C0 9.21104 0.398422 8.24814 1.10778 7.53772L2.23624 6.40926C2.22866 7.0303 2.32712 7.65133 2.53918 8.24964L2.18322 8.60559C1.97091 8.81562 1.80235 9.06567 1.68732 9.34126C1.57229 9.61687 1.51305 9.91254 1.51305 10.2112C1.51305 10.5098 1.57229 10.8055 1.68732 11.0811C1.80235 11.3567 1.97091 11.6068 2.18322 11.8168C2.39325 12.0291 2.64329 12.1976 2.91889 12.3127C3.19449 12.4277 3.49017 12.4869 3.78881 12.4869C4.08746 12.4869 4.38314 12.4277 4.65874 12.3127C4.93434 12.1976 5.18438 12.0291 5.39441 11.8168L8.06787 9.14332C8.28019 8.93329 8.44874 8.68324 8.56377 8.40764C8.67881 8.13204 8.73804 7.83637 8.73804 7.53772C8.73804 7.23908 8.67881 6.9434 8.56377 6.6678C8.44874 6.3922 8.28019 6.14215 8.06787 5.93213C7.99432 5.8632 7.93568 5.77992 7.8956 5.68743C7.85552 5.59494 7.83484 5.49521 7.83484 5.39441C7.83484 5.29361 7.85552 5.19387 7.8956 5.10138C7.93568 5.00889 7.99432 4.92561 8.06787 4.85669Z" fill="#4DAA7F"/>
</svg>
